<?xml version="1.0" encoding="UTF-8" standalone="no"?>
<!-- Created with Inkscape (http://www.inkscape.org/) -->

<svg
   xmlns:osb="http://www.openswatchbook.org/uri/2009/osb"
   xmlns:dc="http://purl.org/dc/elements/1.1/"
   xmlns:cc="http://creativecommons.org/ns#"
   xmlns:rdf="http://www.w3.org/1999/02/22-rdf-syntax-ns#"
   xmlns:svg="http://www.w3.org/2000/svg"
   xmlns="http://www.w3.org/2000/svg"
   xmlns:sodipodi="http://sodipodi.sourceforge.net/DTD/sodipodi-0.dtd"
   xmlns:inkscape="http://www.inkscape.org/namespaces/inkscape"
   width="210mm"
   height="297mm"
   viewBox="0 0 210 297"
   version="1.1"
   id="svg18"
   inkscape:version="0.92.1 r15371"
   sodipodi:docname="prezent2.svg">
  <title
     id="title6235">prezent</title>
  <defs
     id="defs12">
    <linearGradient
       id="linearGradient6011"
       osb:paint="solid">
      <stop
         style="stop-color:#000000;stop-opacity:1;"
         offset="0"
         id="stop6009" />
    </linearGradient>
  </defs>
  <sodipodi:namedview
     id="base"
     pagecolor="#ffffff"
     bordercolor="#666666"
     borderopacity="1.0"
     inkscape:pageopacity="0.0"
     inkscape:pageshadow="2"
     inkscape:zoom="0.49497475"
     inkscape:cx="221.12644"
     inkscape:cy="716.22403"
     inkscape:document-units="mm"
     inkscape:current-layer="layer4"
     showgrid="false"
     inkscape:window-width="1920"
     inkscape:window-height="1017"
     inkscape:window-x="-8"
     inkscape:window-y="-8"
     inkscape:window-maximized="1" />
  <metadata
     id="metadata15">
    <rdf:RDF>
      <cc:Work
         rdf:about="">
        <dc:format>image/svg+xml</dc:format>
        <dc:type
           rdf:resource="http://purl.org/dc/dcmitype/StillImage" />
        <dc:title>prezent</dc:title>
      </cc:Work>
    </rdf:RDF>
  </metadata>
  <g
     inkscape:groupmode="layer"
     id="layer2"
     inkscape:label="obrys"
     style="display:inline" />
  <g
     inkscape:groupmode="layer"
     id="layer3"
     inkscape:label="paski"
     style="display:inline" />
  <g
     inkscape:groupmode="layer"
     id="layer5"
     inkscape:label="wstążka" />
  <g
     inkscape:groupmode="layer"
     id="layer4"
     inkscape:label="kółko do wstążki"
     style="display:inline">
    <g
       id="g6233"
       transform="translate(-1.0690781,-1.0690781)">
      <path
         sodipodi:nodetypes="cccccccccccc"
         inkscape:connector-curvature="0"
         id="path45"
         d="m 43.030393,226.97538 c 24.488092,13.90963 49.204747,27.5907 73.231847,41.96132 1.96965,0.0684 4.13202,1.67852 5.63508,-1.9858 20.398,-15.98828 42.06343,-33.24399 60.66518,-47.43602 -4.29729,-30.24284 10.78967,-94.25599 17.00893,-142.686011 -0.0939,-3.244491 -6.55937,-4.36513 -10.77232,-6.236608 l -5.29167,-2.267857 -20.78869,-6.047619 -6.99256,-1.511905 C 140.2797,53.379881 120.43509,51.680613 104.51042,50.937498 73.826699,59.507477 43.60719,74.112201 13.418155,89.113094 21.471646,137.00418 48.324894,200.57647 43.030393,226.97538 Z"
         style="display:inline;fill:#4152c9;fill-opacity:1;stroke:#000000;stroke-width:0.26458332px;stroke-linecap:butt;stroke-linejoin:miter;stroke-opacity:1" />
      <path
         sodipodi:nodetypes="cccc"
         inkscape:connector-curvature="0"
         id="path48"
         d="M 199.57143,76.828869 C 168.32224,90.324661 136.13757,108.52608 112.2532,128.35293 86.281044,114.91322 7.6163762,88.683095 13.685425,90.983979 95.897839,122.03969 136.39986,107.22764 199.57143,76.828869 Z"
         style="display:inline;fill:none;stroke:#000000;stroke-width:0.26458332px;stroke-linecap:butt;stroke-linejoin:miter;stroke-opacity:1" />
      <path
         sodipodi:nodetypes="ccc"
         inkscape:connector-curvature="0"
         id="path62"
         d="m 112.2532,128.35293 c 3.20765,46.20227 2.86303,93.69819 9.64412,138.59797 -6.07119,-34.77339 -6.42941,-92.39865 -9.64412,-138.59797 z"
         style="display:inline;fill:none;stroke:#000000;stroke-width:0.26458332px;stroke-linecap:butt;stroke-linejoin:miter;stroke-opacity:1" />
      <path
         transform="scale(0.26458333)"
         inkscape:connector-curvature="0"
         id="path6183"
         d="m 422.0797,483.22802 c -1.37966,-1.26044 -27.71111,-13.39279 -47.10645,-21.70455 -15.49792,-6.64153 -69.16199,-28.29425 -76.22941,-30.75752 -1.08547,-0.37833 -2.58247,-3.80241 -1.89278,-4.32936 0.14539,-0.1111 5.74643,-4.07902 12.44675,-8.81761 l 12.18239,-8.61562 24.42475,0.38611 c 18.14676,0.28687 24.42475,0.1751 24.42475,-0.43484 0,-0.58834 -3.69371,-0.82171 -13.03572,-0.82358 -7.16964,-0.001 -17.58808,-0.21087 -23.15208,-0.46542 l -10.11637,-0.46281 12.25923,-9.29647 c 6.74257,-5.11306 19.81279,-14.97729 29.04494,-21.92052 l 16.78571,-12.62404 7.69597,-0.86202 c 9.7059,-1.08715 17.018,-2.94984 24.38148,-6.21095 6.62273,-2.93304 8.96458,-3.06954 22.48384,-1.31045 25.4197,3.30753 49.72724,11.03194 83.56259,26.55438 l 4.55246,2.08851 -8.12389,2.23399 c -27.61924,7.59505 -59.97082,14.12057 -87.40536,17.63022 -5.10482,0.65305 -9.41732,1.32319 -9.58334,1.48921 -1.53238,1.53238 5.89377,0.89346 26.36482,-2.26836 21.72352,-3.35525 51.62576,-9.88699 74.49773,-16.27301 l 6.28345,-1.75438 11.39409,5.09575 c 8.72677,3.90285 11.18532,5.28528 10.50227,5.90537 -0.4905,0.44529 -6.67754,4.44414 -13.74897,8.88633 -34.15073,21.4531 -67.9614,45.35946 -97.73212,69.103 -7.01928,5.59821 -13.1493,10.17857 -13.62225,10.17857 -0.47295,0 -1.16527,-0.27897 -1.53848,-0.61993 z m -21.55401,-75.21968 c 7.38121,-0.55131 11.17741,-1.10596 11.00645,-1.60813 -0.27581,-0.81012 -0.59374,-0.80357 -15.05617,0.30997 -5.06598,0.39006 -11.81598,0.76323 -15,0.82928 l -5.78913,0.12007 4.28571,0.47414 c 6.9489,0.76876 8.72805,0.75791 20.55314,-0.12533 z m 14.61184,-2.51253 c -0.69498,-0.1811 -1.65926,-0.16919 -2.14285,0.0265 -0.4836,0.19566 0.085,0.34383 1.26359,0.32928 1.17857,-0.0146 1.57424,-0.17465 0.87926,-0.35575 z"
         style="display:inline;opacity:1;fill:#4152c9;fill-opacity:1;stroke:#4152c9;stroke-width:0.71541053;stroke-miterlimit:4;stroke-dasharray:none;stroke-opacity:1" />
      <path
         transform="scale(0.26458333)"
         inkscape:connector-curvature="0"
         id="path6185"
         d="m 418.54398,481.56844 c -15.18505,-7.83325 -50.03444,-22.84945 -90,-38.78 -16.5,-6.577 -30.40178,-12.46565 -30.89285,-13.08586 -0.49108,-0.62022 -0.87734,-1.62874 -0.85837,-2.24115 0.019,-0.61241 5.65368,-5.06312 12.52157,-9.89045 l 12.48709,-8.77697 12.17853,0.0888 c 6.6982,0.0488 12.36706,-0.0997 12.59748,-0.33017 0.23041,-0.23041 -1.83526,-0.41893 -4.59038,-0.41893 -2.75513,0 -7.92668,-0.20708 -11.49234,-0.46018 l -6.48302,-0.46018 12.26615,-9.30172 c 6.74638,-5.11594 19.81971,-14.98253 29.05186,-21.92576 l 16.78571,-12.62404 7.69597,-0.86202 c 9.7059,-1.08715 17.018,-2.94984 24.38148,-6.21095 6.62273,-2.93304 8.96458,-3.06954 22.48384,-1.31045 25.44248,3.31049 49.70195,11.02276 83.64182,26.59035 l 4.63168,2.12447 -3.56025,1.04579 c -1.95814,0.57518 -6.37275,1.78369 -9.81025,2.68557 -3.4375,0.90188 -6.25,1.91252 -6.25,2.24587 0,0.78035 -1.11657,1.0149 10.718,-2.25145 l 10.35343,-2.85755 11.61329,5.15299 c 10.85719,4.81749 11.53151,5.22837 10.35714,6.31094 -0.69088,0.63687 -7.52401,5.1304 -15.18472,9.98562 -35.01825,22.1939 -64.351,42.97552 -96.76117,68.5532 -6.47005,5.10608 -12.17599,9.26832 -12.67985,9.24942 -0.50387,-0.0189 -2.84469,-1.02921 -5.20184,-2.24515 z M 367.8297,408.84795 c -0.24882,-0.4026 -3.46197,-0.69238 -7.36359,-0.66408 -4.53225,0.0329 -6.42891,0.26215 -5.49356,0.66408 2.0647,0.88723 13.40549,0.88723 12.85715,0 z m 31.89444,-1.08624 c 4.1848,-0.23568 8.52409,-0.73064 9.64286,-1.0999 1.48712,-0.49084 0.56458,-0.57935 -3.43057,-0.32916 -3.00558,0.18822 -9.59487,0.57481 -14.64286,0.8591 -5.99217,0.33746 -8.43432,0.68792 -7.0353,1.0096 1.17857,0.271 3.42857,0.37936 5,0.2408 1.57143,-0.13855 6.28107,-0.44475 10.46587,-0.68044 z m 37.57539,-3.959 c 18.74679,-2.62382 64.36127,-11.76205 65.77666,-13.17744 1.00954,-1.00953 -1.18071,-0.69657 -10.60364,1.51515 -16.25085,3.81436 -38.16782,7.95273 -56.07142,10.58743 -9.03572,1.3297 -14.8993,2.44712 -13.03018,2.48315 1.86912,0.036 8.13698,-0.59769 13.92858,-1.40829 z"
         style="display:inline;opacity:1;fill:#4152c9;fill-opacity:1;stroke:#4152c9;stroke-width:0.71541053;stroke-miterlimit:4;stroke-dasharray:none;stroke-opacity:1" />
      <path
         transform="scale(0.26458333)"
         inkscape:connector-curvature="0"
         id="path6191"
         d="m 423.07585,483.97765 c -0.48613,-0.18439 -4.00904,-1.87001 -7.82868,-3.74583 -12.4984,-6.13794 -28.98104,-13.42365 -53.15928,-23.49765 -8.80329,-3.66795 -28.59084,-11.71413 -55.81092,-22.69432 -3.7502,-1.51277 -7.34486,-2.98803 -7.98814,-3.27836 l -1.16961,-0.52786 -0.30531,-1.89258 c -0.16792,-1.04092 -0.2098,-1.97524 -0.0931,-2.07627 0.11672,-0.10103 2.82599,-1.98369 6.0206,-4.18368 5.21397,-3.59065 14.86951,-10.47172 17.77712,-12.66896 l 1.1096,-0.83851 h 6.90849 c 3.79966,0 6.90848,-0.0973 6.90848,-0.21632 0,-0.11898 -1.84668,-0.3032 -4.10374,-0.40939 -2.25706,-0.10618 -5.00474,-0.26453 -6.10596,-0.35188 l -2.00221,-0.15883 7.05298,-5.28287 c 3.87913,-2.90558 12.84872,-9.67714 19.93241,-15.0479 7.0837,-5.37076 17.27734,-13.06157 22.65254,-17.09068 l 9.77309,-7.32566 4.11651,-0.15678 c 10.31893,-0.39299 20.39933,-2.94911 30.2542,-7.67166 l 3.40926,-1.63375 2.39912,0.15769 c 25.90654,1.70276 49.90623,7.69777 78.41309,19.58723 9.55533,3.98529 24.19509,10.63469 23.92488,10.86674 -0.21422,0.18397 -0.78044,0.34673 -10.11043,2.90616 -6.7354,1.84767 -8.76998,2.49073 -9.25614,2.92552 -0.42432,0.37948 0.12762,0.25169 6.69116,-1.54919 3.53551,-0.97006 8.15618,-2.23565 10.26817,-2.81241 l 3.83997,-1.04867 6.8929,3.1728 c 3.79109,1.74505 9.1037,4.15131 11.8058,5.34725 2.70209,1.19594 4.9503,2.21185 4.99601,2.25757 0.11062,0.11061 -9.64198,6.52256 -18.78085,12.34769 -32.59498,20.77609 -59.04025,39.40402 -88.0599,62.02901 -3.30996,2.58059 -8.64175,6.71502 -11.84841,9.18763 -3.20666,2.47261 -6.16093,4.77387 -6.56504,5.1139 -0.84412,0.71028 -0.79199,0.70334 -1.95868,0.26082 z m -57.45242,-74.91449 c 1.08164,-0.0143 1.3707,-0.0821 1.01015,-0.23699 -0.62019,-0.2665 -10.89191,-0.32752 -10.62796,-0.0631 0.24031,0.2407 5.17039,0.53952 6.83989,0.41457 0.69448,-0.052 1.94454,-0.10349 2.77792,-0.11445 z m 31.18846,-1.36978 c 6.22701,-0.40139 11.62188,-0.95585 10.56779,-1.0861 -0.36859,-0.0455 -4.57335,0.15127 -9.34391,0.43737 -11.6956,0.70139 -12.8254,0.79957 -12.2083,1.0609 0.53279,0.22563 1.86606,0.1756 10.98442,-0.41217 z m 33.4613,-3.28844 c 3.13113,-0.28132 10.68304,-1.37564 17.5514,-2.5433 24.23542,-4.12017 58.77538,-11.40222 54.37127,-11.46307 -0.70718,-0.01 -1.69183,0.1955 -10.30336,2.14802 -18.75359,4.25205 -34.0695,7.1476 -54.16513,10.24018 -5.48402,0.84395 -10.14335,1.64388 -10.35406,1.77761 -0.27829,0.17662 -0.17582,0.2098 0.3745,0.12127 0.41669,-0.067 1.55311,-0.19336 2.52538,-0.28071 z"
         style="display:inline;opacity:1;fill:#4152c9;fill-opacity:1;stroke:#4152c9;stroke-width:0.25293583;stroke-miterlimit:4;stroke-dasharray:none;stroke-opacity:1" />
      <path
         transform="scale(0.26458333)"
         inkscape:connector-curvature="0"
         id="path6193"
         d="m 421.56063,483.35655 c -1.18062,-0.53161 -3.44792,-1.62094 -5.03846,-2.42073 -10.56935,-5.31474 -30.31012,-14.06658 -53.67666,-23.79693 -9.02503,-3.75822 -19.0501,-7.83962 -60.60857,-24.67489 l -5.05018,-2.04582 -0.30447,-1.6415 c -0.16746,-0.90282 -0.30977,-1.81987 -0.31625,-2.03789 -0.007,-0.22285 0.95511,-1.05211 2.19662,-1.89404 4.2412,-2.87617 12.50718,-8.7031 17.74038,-12.50568 l 5.27413,-3.83235 6.07636,0.0488 c 6.66138,0.0535 8.26099,-0.30573 2.60396,-0.58472 -1.90982,-0.0942 -4.33585,-0.23926 -5.39117,-0.32238 l -1.91877,-0.15112 8.61103,-6.45291 c 4.73607,-3.5491 13.27036,-9.99146 18.9651,-14.31637 5.69473,-4.32491 15.18385,-11.49195 21.08693,-15.92675 l 10.73287,-8.06328 3.91434,-0.16535 c 10.67889,-0.45109 20.66713,-2.97157 30.55712,-7.71095 l 3.40926,-1.63375 2.39912,0.15769 c 27.12087,1.78257 52.06401,8.23175 82.60086,21.3569 4.93595,2.12154 19.69264,8.77632 19.90151,8.97493 0.17655,0.16787 -1.07904,0.55174 -9.39317,2.87174 -7.57745,2.11443 -10.39941,3.00927 -9.5687,3.03422 0.18105,0.005 4.68424,-1.18336 10.00708,-2.64177 5.32285,-1.45841 9.83961,-2.65165 10.03724,-2.65165 0.19764,0 3.02437,1.23329 6.28163,2.74065 3.25725,1.50735 8.42241,3.84873 11.47812,5.20305 3.05571,1.35432 5.7157,2.55041 5.91109,2.65797 0.43858,0.24145 -2.02679,1.90417 -19.30419,13.01937 -24.2881,15.62543 -39.96183,26.29906 -59.08534,40.23644 -11.41856,8.32194 -16.75533,12.39163 -43.48893,33.16361 -2.11224,1.64121 -3.98733,2.98133 -4.16688,2.97804 -0.17954,-0.003 -1.2924,-0.44093 -2.47301,-0.97255 z m -56.44228,-74.542 c -1.75723,-0.2737 -8.46947,-0.26374 -7.82868,0.0116 0.27779,0.11937 2.43699,0.20984 4.79822,0.20104 3.01281,-0.0112 3.91658,-0.0746 3.03046,-0.21266 z m 30.80657,-1.14595 c 7.12629,-0.49045 10.08866,-0.78086 8.46311,-0.82968 -1.36106,-0.0409 -13.42799,0.66902 -16.28871,0.95826 l -2.0203,0.20426 2.01722,0.0336 c 1.10947,0.0185 4.63238,-0.14642 7.82868,-0.3664 z m 36.88813,-3.63475 c 7.9593,-0.98683 17.67661,-2.61059 32.68921,-5.46236 18.35573,-3.48683 35.7354,-7.2817 36.48387,-7.9663 0.3225,-0.29499 -0.11125,-0.20873 -9.33602,1.85648 -20.1003,4.50001 -32.28812,6.81338 -54.27608,10.30214 -5.26726,0.83574 -9.63301,1.57571 -9.70168,1.64437 -0.16759,0.1676 -0.39913,0.18853 4.1407,-0.37433 z"
         style="display:inline;opacity:1;fill:#4152c9;fill-opacity:1;stroke:#4152c9;stroke-width:0.25293583;stroke-miterlimit:4;stroke-dasharray:none;stroke-opacity:1" />
      <path
         transform="scale(0.26458333)"
         inkscape:connector-curvature="0"
         id="path6195"
         d="m 421.93943,483.61422 c -0.83337,-0.39625 -4.52674,-2.17329 -8.20749,-3.94897 -13.94067,-6.72535 -33.50659,-15.30801 -56.44227,-24.75861 -6.65573,-2.74248 -51.12993,-20.81185 -56.97106,-23.14671 l -3.18044,-1.2713 -0.30998,-2.02489 c -0.17049,-1.11368 -0.21664,-2.10616 -0.10255,-2.20549 0.11408,-0.0993 1.5143,-1.07229 3.1116,-2.16213 5.0823,-3.46763 10.31091,-7.15753 16.35907,-11.54481 l 5.87874,-4.26439 4.09652,0.15436 c 2.25309,0.0849 4.66473,0.0579 5.35921,-0.0599 1.09986,-0.18667 0.79048,-0.23828 -2.39911,-0.40021 -2.01399,-0.10225 -4.18722,-0.25078 -4.82939,-0.33007 l -1.16758,-0.14417 8.61746,-6.45771 c 4.7396,-3.55175 13.27678,-9.99628 18.97152,-14.32119 5.69473,-4.32491 15.18385,-11.49195 21.08693,-15.92675 l 10.73287,-8.06328 3.91434,-0.16535 c 10.67889,-0.45109 20.66713,-2.97157 30.55712,-7.71095 l 3.40926,-1.63375 2.39912,0.15769 c 25.90654,1.70276 49.90623,7.69777 78.41309,19.58723 8.40563,3.50578 24.11739,10.59204 24.11739,10.87735 0,0.0923 -2.92629,0.98741 -6.50286,1.98917 -8.54175,2.39248 -10.93769,3.10507 -10.82362,3.21914 0.0518,0.0518 4.09008,-0.99095 8.974,-2.31719 4.88391,-1.32623 9.08035,-2.41133 9.32541,-2.41133 0.24506,0 3.22315,1.28479 6.61798,2.8551 3.39483,1.5703 8.69682,3.97434 11.78219,5.3423 3.08538,1.36796 5.54585,2.59064 5.46771,2.71707 -0.18382,0.29743 -7.91161,5.38732 -19.66378,12.95151 -33.93971,21.84501 -57.07413,38.14762 -86.36804,60.86276 -3.75019,2.90798 -9.71641,7.53286 -13.25825,10.27751 -3.54185,2.74465 -6.66701,4.99211 -6.9448,4.99436 -0.27779,0.002 -1.18693,-0.32011 -2.02031,-0.71636 z m -58.23108,-74.62685 c -0.25895,-0.22478 -3.76784,-0.36682 -3.632,-0.14702 0.081,0.1311 0.95505,0.23836 1.94227,0.23836 0.98722,0 1.7476,-0.0411 1.68973,-0.0913 z m 25.84307,-1.08606 c -0.17362,-0.0701 -0.45773,-0.0701 -0.63135,0 -0.17362,0.07 -0.0316,0.12737 0.31567,0.12737 0.34724,0 0.4893,-0.0573 0.31568,-0.12737 z m 11.36984,-0.77263 c -0.44831,-0.0558 -1.2438,-0.0567 -1.76776,-0.002 -0.52396,0.0547 -0.15716,0.10031 0.81511,0.10143 0.97228,10e-4 1.40097,-0.0436 0.95265,-0.0994 z m 35.33758,-3.61637 c 5.82924,-0.83243 13.67282,-2.13751 21.91982,-3.64718 8.42069,-1.54148 28.09471,-5.43146 28.26322,-5.58826 0.40834,-0.37995 -0.78891,-0.20361 -5.42624,0.79924 -10.91129,2.35964 -24.08056,4.77135 -41.90361,7.67388 -7.74054,1.26056 -9.34604,1.68952 -2.85319,0.76232 z m 57.65396,-10.85469 c 5.09913,-1.15055 7.51204,-1.78367 7.36361,-1.93211 -0.0764,-0.0764 -9.5014,1.93366 -13.23512,2.8227 -0.31252,0.0744 -0.56821,0.23469 -0.56821,0.35617 0,0.12612 0.40626,0.12608 0.94702,-10e-5 0.52086,-0.12154 2.99257,-0.68254 5.4927,-1.24666 z"
         style="display:inline;opacity:1;fill:#4152c9;fill-opacity:1;stroke:#4152c9;stroke-width:0.25293583;stroke-miterlimit:4;stroke-dasharray:none;stroke-opacity:1" />
      <path
         transform="scale(0.26458333)"
         inkscape:connector-curvature="0"
         id="path6197"
         d="m 416.38359,481.01896 c -22.90486,-11.07345 -40.04369,-18.38815 -99.62629,-42.51962 -8.8199,-3.57213 -16.84081,-6.82589 -17.82426,-7.23058 l -1.78809,-0.73579 -0.31337,-2.04706 c -0.17235,-1.12588 -0.22003,-2.12833 -0.10594,-2.22766 0.11408,-0.0993 1.5143,-1.07229 3.1116,-2.16213 5.07725,-3.46419 10.30892,-7.15609 16.33555,-11.52773 l 5.85522,-4.24729 4.62512,-0.0356 4.62511,-0.0356 -3.91434,-0.31957 c -2.15289,-0.17576 -4.00217,-0.33023 -4.10952,-0.34326 -0.10735,-0.013 3.69966,-2.94239 8.46002,-6.5097 4.76037,-3.56731 13.31454,-10.02457 19.00928,-14.34948 5.69473,-4.32491 15.18385,-11.49195 21.08693,-15.92675 l 10.73287,-8.06328 3.91434,-0.16535 c 10.67889,-0.45109 20.66713,-2.97157 30.55712,-7.71095 l 3.40926,-1.63375 2.39912,0.15769 c 25.90654,1.70276 49.90623,7.69777 78.41309,19.58723 8.27876,3.45286 24.11739,10.5912 24.11739,10.86952 0,0.14817 -4.06982,1.41413 -7.76609,2.41573 -0.86839,0.23531 -1.5332,0.47354 -1.47735,0.52939 0.0558,0.0558 2.24435,-0.47424 4.86333,-1.17798 2.61898,-0.70373 4.99507,-1.27952 5.28019,-1.27952 0.28513,0 3.296,1.28479 6.69083,2.8551 3.39483,1.5703 8.69937,3.97547 11.78786,5.34482 4.64473,2.05933 5.56472,2.55083 5.32204,2.84325 -0.37596,0.45299 -6.17085,4.28465 -19.77632,13.07634 -37.11606,23.98395 -55.50644,37.02273 -91.54507,64.90547 -13.90624,10.75911 -14.20916,10.98181 -14.92223,10.97029 -0.33488,-0.005 -3.67721,-1.49323 -7.4274,-3.30628 z m 21.65515,-77.91588 c -0.17362,-0.0701 -0.45773,-0.0701 -0.63135,0 -0.17362,0.0701 -0.0316,0.12738 0.31568,0.12738 0.34724,0 0.48929,-0.0573 0.31567,-0.12738 z m 1.6415,-0.25937 c -0.24307,-0.0635 -0.64082,-0.0635 -0.88389,0 -0.24306,0.0635 -0.0442,0.1155 0.44194,0.1155 0.48614,0 0.68501,-0.052 0.44195,-0.1155 z m 6.50285,-0.95063 c 1.80565,-0.32349 2.99889,-0.59343 2.65165,-0.59987 -0.34724,-0.006 -2.10869,0.25297 -3.91434,0.57645 -1.80564,0.32349 -2.99889,0.59343 -2.65165,0.59987 0.34724,0.006 2.1087,-0.25296 3.91434,-0.57645 z m 5.46358,-1.09693 c -0.32853,-0.0517 -0.70144,0.0102 -0.82868,0.13738 -0.1401,0.14011 0.0955,0.17717 0.59734,0.094 0.70127,-0.11626 0.73684,-0.15183 0.23134,-0.23135 z m 1.66582,-0.22621 c -0.24571,-0.064 -0.58664,-0.0598 -0.75761,0.009 -0.17098,0.0692 0.0301,0.12157 0.44674,0.11642 0.41669,-0.005 0.55658,-0.0617 0.31087,-0.12577 z m 2.46705,-0.33007 c 0.6758,-0.17196 0.68943,-0.19278 0.12627,-0.19278 -0.34724,0 -0.97227,0.0868 -1.38896,0.19278 -0.67579,0.17197 -0.68943,0.19278 -0.12627,0.19278 0.34724,0 0.97227,-0.0868 1.38896,-0.19278 z m 1.8261,-0.42754 c -0.24571,-0.064 -0.58664,-0.0598 -0.75762,0.009 -0.17097,0.0692 0.0301,0.12156 0.44675,0.11642 0.41669,-0.005 0.55658,-0.0618 0.31087,-0.12578 z m 1.39376,-0.24478 c -0.17362,-0.0701 -0.45772,-0.0701 -0.63134,0 -0.17362,0.0701 -0.0316,0.12738 0.31567,0.12738 0.34724,0 0.48929,-0.0573 0.31567,-0.12738 z m 1.26269,-0.25254 c -0.17362,-0.0701 -0.45772,-0.0701 -0.63134,0 -0.17362,0.0701 -0.0316,0.12738 0.31567,0.12738 0.34724,0 0.48929,-0.0573 0.31567,-0.12738 z m 1.51523,-0.25254 c -0.17362,-0.0701 -0.45772,-0.0701 -0.63134,0 -0.17362,0.0701 -0.0316,0.12738 0.31567,0.12738 0.34724,0 0.48929,-0.0573 0.31567,-0.12738 z m 1.3837,-0.23786 c -0.0839,-0.0839 -0.30173,-0.0929 -0.48403,-0.0199 -0.20146,0.0806 -0.14162,0.14046 0.15258,0.15258 0.26621,0.011 0.41537,-0.0487 0.33145,-0.13264 z m 1.26269,-0.25254 c -0.0839,-0.0839 -0.30173,-0.0929 -0.48403,-0.0199 -0.20146,0.0806 -0.14162,0.14046 0.15258,0.15258 0.26621,0.011 0.41537,-0.0487 0.33145,-0.13264 z m 1.39422,-0.26721 c -0.17362,-0.0701 -0.45772,-0.0701 -0.63134,0 -0.17362,0.07 -0.0316,0.12737 0.31567,0.12737 0.34724,0 0.48929,-0.0573 0.31567,-0.12737 z m 1.3837,-0.23787 c -0.0839,-0.0839 -0.30173,-0.0929 -0.48403,-0.0199 -0.20146,0.0806 -0.14162,0.14045 0.15258,0.15257 0.26621,0.011 0.41537,-0.0487 0.33145,-0.13264 z m 2.52538,-0.50507 c -0.0839,-0.0839 -0.30173,-0.0929 -0.48403,-0.0199 -0.20146,0.0806 -0.14162,0.14046 0.15258,0.15258 0.26621,0.011 0.41537,-0.0487 0.33145,-0.13264 z m 6.31346,-1.26269 c -0.0839,-0.0839 -0.30173,-0.0929 -0.48403,-0.0199 -0.20146,0.0806 -0.14162,0.14046 0.15257,0.15257 0.26622,0.011 0.41537,-0.0487 0.33146,-0.13263 z m 1.26269,-0.25254 c -0.0839,-0.0839 -0.30173,-0.0929 -0.48403,-0.0199 -0.20146,0.0806 -0.14162,0.14046 0.15257,0.15258 0.26622,0.011 0.41537,-0.0487 0.33146,-0.13264 z m 1.39422,-0.26721 c -0.17362,-0.0701 -0.45773,-0.0701 -0.63135,0 -0.17362,0.0701 -0.0316,0.12737 0.31568,0.12737 0.34724,0 0.48929,-0.0573 0.31567,-0.12737 z m 1.13116,-0.23787 c -0.0839,-0.0839 -0.30173,-0.0929 -0.48403,-0.0199 -0.20146,0.0806 -0.14162,0.14045 0.15257,0.15257 0.26622,0.011 0.41538,-0.0487 0.33146,-0.13264 z m 1.14168,-0.26721 c -0.17362,-0.0701 -0.45772,-0.0701 -0.63134,0 -0.17362,0.0701 -0.0316,0.12738 0.31567,0.12738 0.34724,0 0.48929,-0.0573 0.31567,-0.12738 z m 1.26269,-0.25254 c -0.17362,-0.0701 -0.45772,-0.0701 -0.63134,0 -0.17362,0.0701 -0.0316,0.12738 0.31567,0.12738 0.34724,0 0.48929,-0.0573 0.31567,-0.12738 z m 2.08344,-0.33782 c 0.68052,-0.17317 0.69337,-0.19326 0.12627,-0.19749 -0.34724,-0.003 -0.91545,0.0863 -1.26269,0.19749 -0.49472,0.15843 -0.52205,0.20117 -0.12627,0.19748 0.27779,-0.003 0.846,-0.0915 1.26269,-0.19748 z m 1.57311,-0.40512 c -0.0839,-0.0839 -0.30174,-0.0929 -0.48404,-0.0199 -0.20145,0.0806 -0.14162,0.14045 0.15258,0.15257 0.26621,0.011 0.41537,-0.0487 0.33146,-0.13264 z m 7.20476,-1.50584 c 2.3277,-0.52074 4.18357,-0.99542 4.12416,-1.05483 -0.13514,-0.13514 -8.3601,1.65957 -9.08602,1.9826 -0.48886,0.21754 -0.48072,0.22815 0.0983,0.12812 0.34724,-0.06 2.53583,-0.53514 4.86353,-1.05589 z m 5.1696,-1.27208 c -0.0839,-0.0839 -0.30173,-0.0929 -0.48403,-0.0199 -0.20146,0.0806 -0.14162,0.14045 0.15258,0.15257 0.26621,0.011 0.41537,-0.0487 0.33145,-0.13264 z m 17.11472,-4.39311 c 0.31836,-0.1368 0.36504,-0.21704 0.12627,-0.21704 -0.20834,0 -0.60609,0.0977 -0.88388,0.21704 -0.31836,0.13681 -0.36504,0.21704 -0.12627,0.21704 0.20834,0 0.60609,-0.0977 0.88388,-0.21704 z"
         style="display:inline;opacity:1;fill:#4152c9;fill-opacity:1;stroke:#4152c9;stroke-width:0.25293583;stroke-miterlimit:4;stroke-dasharray:none;stroke-opacity:1" />
      <path
         transform="scale(0.26458333)"
         inkscape:connector-curvature="0"
         id="path6199"
         d="m 422.19197,483.84171 c -0.55558,-0.25173 -3.79439,-1.79017 -7.19734,-3.41875 -23.55282,-11.27189 -39.45989,-18.03161 -104.16769,-44.26612 l -13.63276,-5.52714 -0.31998,-1.87352 c -0.17599,-1.03044 -0.29157,-2.00836 -0.25683,-2.17316 0.0347,-0.16479 2.73374,-2.14505 5.99779,-4.40057 6.78236,-4.68673 17.9375,-12.7009 18.85461,-13.54568 0.34881,-0.32131 0.9404,-0.56821 1.36145,-0.56821 0.40954,0 0.74461,-0.11365 0.74461,-0.25254 0,-0.1389 -0.11624,-0.25254 -0.25832,-0.25254 -0.14207,0 3.63653,-2.9187 8.39689,-6.48601 4.76037,-3.56731 13.31454,-10.02457 19.00928,-14.34948 5.69473,-4.32491 15.18385,-11.49195 21.08693,-15.92675 l 10.73287,-8.06328 3.91434,-0.16535 c 10.67889,-0.45109 20.66713,-2.97157 30.55712,-7.71095 l 3.40926,-1.63375 2.39912,0.15769 c 25.90654,1.70276 49.90623,7.69777 78.41309,19.58723 8.71436,3.63454 24.11739,10.59408 24.11739,10.89695 0,0.10306 -0.4553,0.32379 -1.01178,0.49052 -1.5028,0.45024 -1.03049,0.56218 0.58837,0.13944 l 1.39861,-0.36523 6.39406,2.95169 c 3.51674,1.62343 8.92102,4.07258 12.00951,5.44255 4.80921,2.13324 5.57071,2.54476 5.30385,2.86628 -0.4255,0.51273 -6.24641,4.38314 -20.01066,13.30543 -36.45907,23.63357 -53.08491,35.36502 -85.68963,60.46395 -21.88301,16.84541 -20.04612,15.6279 -22.14416,14.6773 z m 100.51018,-98.75412 c 0.31836,-0.13681 0.36504,-0.21704 0.12627,-0.21704 -0.20835,0 -0.60609,0.0977 -0.88389,0.21704 -0.31835,0.1368 -0.36503,0.21704 -0.12626,0.21704 0.20834,0 0.60609,-0.0977 0.88388,-0.21704 z"
         style="display:inline;opacity:1;fill:#4152c9;fill-opacity:1;stroke:#4152c9;stroke-width:0.25293583;stroke-miterlimit:4;stroke-dasharray:none;stroke-opacity:1" />
      <path
         transform="scale(0.26458333)"
         inkscape:connector-curvature="0"
         id="path6201"
         d="m 420.4242,483.09303 c -29.29692,-14.04217 -41.09759,-19.07666 -114.9264,-49.0307 l -8.35531,-3.38995 -0.30682,-2.12208 c -0.16875,-1.16714 -0.21588,-2.2013 -0.10472,-2.29812 0.11116,-0.0968 2.24766,-1.57854 4.74779,-3.29269 5.53431,-3.79449 10.97889,-7.65614 16.61522,-11.78461 2.33247,-1.70848 4.47273,-3.10632 4.75614,-3.10632 0.2834,0 0.4712,-0.13224 0.41733,-0.29386 -0.0539,-0.16163 3.77207,-3.19397 8.50211,-6.73855 4.73004,-3.54458 13.2594,-9.98325 18.95414,-14.30816 5.69473,-4.32491 15.18385,-11.49195 21.08693,-15.92675 l 10.73287,-8.06328 3.91434,-0.16535 c 10.67889,-0.45109 20.66713,-2.97157 30.55712,-7.71095 l 3.40926,-1.63375 2.39912,0.15769 c 25.90654,1.70276 49.90623,7.69777 78.41309,19.58723 8.60736,3.58991 24.11739,10.59337 24.11739,10.89007 0,0.0993 -0.23585,0.25535 -0.52411,0.34684 -0.86549,0.2747 -0.39393,0.38352 0.52272,0.12063 0.7842,-0.22491 1.40965,0.0141 8.19076,3.13043 4.03795,1.85567 9.47252,4.31446 12.07682,5.46398 2.60429,1.14952 4.73509,2.1771 4.73509,2.28351 0,0.27347 -4.66403,3.38721 -20.58186,13.74064 -37.69364,24.51705 -53.21125,35.50322 -88.57168,62.70702 -15.59184,11.99525 -16.5408,12.68264 -17.48207,12.66332 -0.42344,-0.009 -1.90631,-0.56051 -3.29527,-1.22624 z"
         style="display:inline;opacity:1;fill:#4152c9;fill-opacity:1;stroke:#4152c9;stroke-width:0.25293583;stroke-miterlimit:4;stroke-dasharray:none;stroke-opacity:1" />
      <path
         sodipodi:nodetypes="ccccccc"
         inkscape:connector-curvature="0"
         id="path64"
         d="M 104.76965,93.206984 C 95.609191,99.75252 85.992083,107.5955 78.277545,112.73109 86.149994,163.1478 92.081596,210.65325 97.98361,258.11431 L 63.409694,238.53479 c -3.842751,-44.70268 -7.173629,-89.24 -20.32041,-136.94848 13.308029,-6.641998 28.157288,-11.357459 43.467263,-15.497025 -4.684441,4.93099 15.142683,11.762003 19.276783,7.181546"
         style="display:inline;fill:#ffff00;stroke:#000000;stroke-width:0.26458332px;stroke-linecap:butt;stroke-linejoin:miter;stroke-opacity:1" />
      <path
         sodipodi:nodetypes="ccccccc"
         inkscape:connector-curvature="0"
         id="path66"
         d="m 105.83333,93.270831 c 17.98251,-0.689402 29.19437,6.65518 40.44345,11.339289 -0.5869,47.49243 0.0814,94.98486 0.72146,142.47729 l 19.51067,-15.43481 c 2.58415,-47.97499 6.64252,-113.73642 10.42352,-144.459179 -11.47693,-4.634513 -25.96798,-6.786817 -41.71145,-7.907708 -30.90794,10.816576 -27.10139,13.728843 -29.38765,13.985118 z"
         style="display:inline;fill:#ffff00;stroke:#000000;stroke-width:0.26458332px;stroke-linecap:butt;stroke-linejoin:miter;stroke-opacity:1" />
      <g
         id="g6104">
        <path
           style="opacity:1;fill:#ffcc00;fill-opacity:1;stroke:#000000;stroke-width:0;stroke-linecap:butt;stroke-linejoin:miter;stroke-miterlimit:4;stroke-dasharray:none;stroke-opacity:1"
           d="m 115.12275,84.572145 c 7.97277,4.296906 36.47545,-8.79817 41.76446,-26.511105 2.42968,-22.524324 -26.4343,-29.911839 -42.22859,-26.192413 -7.66308,8.198262 -11.42381,16.014307 -10.95805,28.59784 6.3376,3.539154 12.42128,5.893126 11.42218,24.105678 z"
           id="path4547"
           inkscape:connector-curvature="0"
           sodipodi:nodetypes="ccccc" />
        <path
           style="fill:#ffcc00;stroke:#000000;stroke-width:0;stroke-linecap:butt;stroke-linejoin:miter;stroke-miterlimit:4;stroke-dasharray:none;stroke-opacity:1"
           d="M 86.556545,86.089285 C 67.944177,93.673426 42.40602,85.392438 43.721494,63.484713 51.960902,39.342964 72.880519,30.486239 77.130186,32.748717 85.657141,37.283916 91.163002,50.174698 93.009795,65.277319 89.773071,71.129 85.714738,76.159073 86.556545,86.089285 Z"
           id="path4549"
           inkscape:connector-curvature="0"
           sodipodi:nodetypes="ccccc" />
        <path
           style="fill:#ffcc00;fill-opacity:1;stroke-width:0.50147587"
           id="path4544"
           sodipodi:type="arc"
           sodipodi:cx="101.19125"
           sodipodi:cy="77.843231"
           sodipodi:rx="19.674034"
           sodipodi:ry="18.100294"
           sodipodi:start="0"
           sodipodi:end="6.2051761"
           sodipodi:open="true"
           d="M 120.86529,77.843231 A 19.674034,18.100294 0 0 1 101.57492,95.940083 19.674034,18.100294 0 0 1 81.532183,78.549047 19.674034,18.100294 0 0 1 100.04084,59.773907 19.674034,18.100294 0 0 1 120.80546,76.432673" />
      </g>
    </g>
  </g>
</svg>
